<?xml version="1.0" encoding="utf-8"?>
<!-- Generator: Adobe Illustrator 19.2.0, SVG Export Plug-In . SVG Version: 6.00 Build 0)  -->
<svg version="1.1" id="Layer_1" xmlns="http://www.w3.org/2000/svg" xmlns:xlink="http://www.w3.org/1999/xlink" x="0px" y="0px"
	 viewBox="0 0 150 150" style="enable-background:new 0 0 150 150;" xml:space="preserve">
<style type="text/css">
	.st0{fill:#C29F54;}
	.st1{fill:#FFFFFF;}
	.st2{fill:#FD94FF;}
	.st3{fill:#72A788;}
	.st4{fill:#A2DDD1;}
	.st5{fill:#5D8B71;}
	.st6{fill:#E6E4DA;}
	.st7{fill:#8BB9B1;}
	.st8{fill:#365C3C;}
	.st9{fill:#F8F8F5;}
	.st10{fill:#E9E9E7;}
	.st11{fill:#C6D6A3;}
	.st12{fill:#A6BB88;}
	.st13{fill:#7A9E5B;}
	.st14{fill:#FFFCE6;}
	.st15{fill:#F37A5D;}
	.st16{fill:#DC6F54;}
	.st17{fill:#B89278;}
	.st18{fill:#A3826B;}
	.st19{fill:#EBE9D7;}
	.st20{fill:#84655A;}
	.st21{fill:#FFD425;}
	.st22{fill:#FFC628;}
	.st23{fill:#FFBA08;}
	.st24{fill:#937C66;}
	.st25{fill:#A58B71;}
	.st26{fill:#9D856C;}
	.st27{fill:#AE9277;}
	.st28{fill:#8C7661;}
	.st29{fill:#FCEF98;}
	.st30{fill:#E4E3D3;}
	.st31{fill:#B97595;}
	.st32{fill:#6D503E;}
	.st33{fill:#C2D4DD;}
	.st34{fill:#915B76;}
	.st35{fill:#D1D0C3;}
	.st36{fill:#B7C9D1;}
	.st37{fill:#A96B89;}
	.st38{fill:#674B3A;}
	.st39{fill:#FFFDE7;}
	.st40{fill:#D385A9;}
	.st41{fill:#7B5A46;}
	.st42{fill:#D9E6ED;}
	.st43{fill:#EFEFE1;}
	.st44{fill:#0D6EA9;}
	.st45{fill:#B33335;}
	.st46{fill:#E59B30;}
	.st47{fill:#A6A8AB;}
	.st48{fill:#3A704D;}
	.st49{fill:#58595B;}
	.st50{fill:#414042;}
	.st51{fill:#2B496C;}
	.st52{fill:#B2B5B7;}
	.st53{fill:#302B29;}
	.st54{fill:#D5C7A7;}
	.st55{fill:#C0AE8C;}
	.st56{fill:#203C5E;}
	.st57{fill:#A5A8A7;}
	.st58{fill:#201D1C;}
	.st59{fill:#FBCE3F;}
	.st60{fill:#F8BD32;}
	.st61{fill:#654D31;}
	.st62{fill:#EBA537;}
	.st63{fill:#A1485F;}
	.st64{fill:#E1BEA1;}
	.st65{fill:#924055;}
	.st66{fill:#B25169;}
	.st67{fill:#FACFE2;}
	.st68{fill:#F9C5DC;}
	.st69{fill:#D1B297;}
	.st70{fill:#753E56;}
	.st71{fill:#BC6254;}
	.st72{fill:#B15C4F;}
	.st73{fill:#90AA4E;}
	.st74{fill:#859D47;}
	.st75{fill:#627738;}
	.st76{fill:#7F9842;}
	.st77{fill:#77903C;}
	.st78{fill:#9A4F44;}
	.st79{fill:#8FD2E6;}
	.st80{fill:#78CBE4;}
	.st81{fill:#35B8CC;}
	.st82{fill:#00A1B6;}
	.st83{fill:#FFFDB9;}
	.st84{fill:#FFF68A;}
	.st85{fill:#FFE86A;}
	.st86{fill:#FFE142;}
	.st87{fill:#FFA1E9;}
	.st88{fill:#FF90E6;}
	.st89{fill:#E147BB;}
	.st90{fill:#DF3FAF;}
	.st91{fill:#925BD1;}
	.st92{fill:#FFD700;}
	.st93{fill:#FFEE75;}
	.st94{fill:#B3237A;}
	.st95{fill:#FF7CDC;}
	.st96{fill:#007E93;}
	.st97{fill:#5AB2D3;}
	.st98{fill:#72C9CB;}
	.st99{fill:#E5E6E7;}
	.st100{fill:#8094A1;}
	.st101{fill:#6D5A4D;}
	.st102{fill:#ACC665;}
	.st103{fill:#EDDD42;}
	.st104{fill:#EBC919;}
	.st105{fill:#9CB45C;}
	.st106{fill:#EBD339;}
	.st107{fill:#A4BD61;}
	.st108{fill:#808184;}
	.st109{fill:#F3869B;}
	.st110{fill:#FDE2DD;}
	.st111{fill:#ECCACA;}
	.st112{fill:#F593A2;}
	.st113{fill:#FFD76D;}
	.st114{fill:#E3C063;}
	.st115{fill:#E37D91;}
	.st116{fill:#CA7083;}
	.st117{fill:#FFE27A;}
	.st118{fill:#48484A;}
	.st119{fill:#424244;}
	.st120{fill:#6B5C4E;}
	.st121{fill:#D9F1F4;}
	.st122{fill:#3F3E40;}
	.st123{fill:#9BBECA;}
	.st124{fill:#564A3E;}
	.st125{fill:#B8D9E2;}
	.st126{fill:#645649;}
	.st127{fill:#766556;}
	.st128{fill:#353738;}
	.st129{fill:#333132;}
	.st130{fill:#3B3B3C;}
	.st131{fill:#231F20;}
	.st132{fill:#D0D2D3;}
	.st133{fill:#6ECAF3;}
	.st134{fill:#CED0D1;}
	.st135{fill:#F6CC78;}
	.st136{fill:#BBBDBF;}
	.st137{fill:#FFB4D3;}
	.st138{opacity:0.2;fill:#FFFFFF;}
	.st139{fill:#9D6F4A;}
	.st140{fill:#A97A4F;}
	.st141{fill:#FEC844;}
	.st142{fill:#C32A30;}
	.st143{fill:#A72226;}
	.st144{fill:#DCA43B;}
	.st145{fill:#8A171A;}
	.st146{fill:#8B6540;}
	.st147{fill:#5DFDFF;}
	.st148{fill:#8B1D24;}
	.st149{fill:#A72730;}
	.st150{fill:#770D18;}
	.st151{fill:#5D050C;}
	.st152{fill:#63C4DE;}
</style>
<g>
	<path class="st24" d="M102.59,82.57l-2.87,0.75c-11.88,3.11-24.13,4.69-36.42,4.69h-7.77c12.16,0,23.71-4.73,32.31-12.97
		c2.23-2.14,4.27-4.52,6.06-7.11c1.92-2.77,3.82-5.52,5.2-7.81l0.01,0.01c0.27-0.54,0.57-1.08,0.89-1.59
		c3.54-5.71,9.85-9.5,17.06-9.5c0.66,0,1.31,0.03,1.95,0.09c10.17,0.98,18.11,9.55,18.11,19.96c0,11.08-8.98,20.06-20.06,20.06
		c-5.6,0-10.67-2.29-14.31-5.99L102.59,82.57z"/>
	<path class="st25" d="M44.2,74.99c-5.11-0.26-9.2-4.52-9.2-9.69V48.65v-8.42c0-15.71,8.74-29.47,21.59-36.67
		c4.95-2.77,11.11-1.72,15.15,2.25c1.45,1.43,3.28,2.27,5.26,2.27c1.99,0,3.82-0.84,5.27-2.27c4.04-3.97,10.2-5.02,15.15-2.25
		c12.85,7.2,21.59,20.96,21.59,36.67v8.9c-0.64-0.06-1.29-0.09-1.95-0.09c-7.21,0-13.52,3.79-17.06,9.5
		c-0.32,0.51-0.62,1.05-0.89,1.59l-0.01-0.01c-1.38,2.29-3.28,5.04-5.2,7.81c-1.79,2.59-3.83,4.97-6.06,7.11L87.8,75H44.7
		C44.53,75,44.37,75,44.2,74.99z"/>
	<g>
		<path class="st26" d="M97.42,3.56c-3.984-2.229-8.749-1.98-12.564,0.269C97.458,11.097,106,24.705,106,40.23v8.42v3.711
			c3.17-2.099,6.969-3.321,11.06-3.321c0.66,0,1.31,0.03,1.95,0.09v-8.9C119.01,24.52,110.27,10.76,97.42,3.56z"/>
	</g>
	<path class="st25" d="M44.2,74.99C44.37,75,44.53,75,44.7,75h43.1l0.04,0.04c-8.6,8.24-20.15,12.97-32.31,12.97h-0.31H32.81
		c-0.33-0.03-0.66-0.07-0.98-0.12C22.3,86.46,15,78.27,15,68.38c0-10.89,8.86-19.73,19.79-19.73H35V65.3
		C35,70.47,39.09,74.73,44.2,74.99z"/>
	<g>
		<path class="st27" d="M48.99,65.3V48.65v-8.42c0-15.316,8.319-28.761,20.643-36.098c-3.89-2.522-8.89-2.896-13.043-0.572
			C43.74,10.76,35,24.52,35,40.23v8.42V65.3c0,5.17,4.09,9.43,9.2,9.69C44.37,75,44.53,75,44.7,75h13.99c-0.17,0-0.33,0-0.5-0.01
			C53.08,74.73,48.99,70.47,48.99,65.3z"/>
		<path class="st27" d="M87.8,75l0.04,0.04c0.013-0.013,0.026-0.027,0.04-0.04H87.8z"/>
	</g>
	<g>
		<path class="st27" d="M44.7,75c-0.17,0-0.33,0-0.5-0.01c-5.11-0.26-9.2-4.52-9.2-9.69V48.65v-0.42c-6.814,1.187-12,7.116-12,14.27
			C23,70.508,29.492,77,37.5,77c2.675,0,5.172-0.737,7.323-2H44.7z"/>
	</g>
	<g>
		<path class="st28" d="M119.01,49.13c-0.64-0.06-1.29-0.09-1.95-0.09c-0.855,0-3.774,0.368-5.06,0.96c2.594,2.829,5.009,6.753,6,14
			c1.385,10.127-1.193,17.708-16,18c3.94,5.343,9.812,7.15,15.06,7.15c11.08,0,20.06-8.98,20.06-20.06
			C137.12,58.68,129.18,50.11,119.01,49.13z"/>
	</g>
	<g>
		<path class="st25" d="M87.8,75l0.04,0.04c0.013-0.013,0.026-0.027,0.04-0.04H87.8z"/>
	</g>
	<polygon class="st29" points="75.93,50.77 70.96,55.61 72.14,62.45 66,59.22 59.86,62.45 61.04,55.61 56.07,50.77 62.93,49.78 
		66,43.56 69.07,49.78 	"/>
</g>
<g>
	<path class="st101" d="M139.12,69.09c0-10.801-7.666-19.818-18.11-21.69V40.23c0-15.88-8.664-30.601-22.613-38.416
		C92.8-1.318,85.593-0.259,80.864,4.387c-2.239,2.209-5.463,2.225-7.723-0.004c-4.724-4.641-11.931-5.699-17.529-2.568
		C41.664,9.63,33,24.351,33,40.23v6.499C21.82,47.641,13,57,13,68.38c0,10.333,7.488,19.305,17.549,21.294l35.369,48.459
		c-1.169,1.15-1.908,3.088-1.908,5.377c0,3.7,1.935,6.49,4.5,6.49c2.56,0,4.49-2.79,4.49-6.49c0-2.104-0.623-3.912-1.629-5.084
		l46.549-47.298C129.686,90.675,139.12,80.966,139.12,69.09z M35.745,90.01H55.22h8.08c12.448,0,24.872-1.6,36.926-4.755l1.44-0.378
		c3.086,3.011,6.89,5.023,11.039,5.846l-43.892,44.6L35.745,90.01z M135.12,69.09c0,9.959-8.102,18.061-18.061,18.061
		c-3.907,0-7.604-1.242-10.682-3.51l4.14-1.086c3.242-0.851,5.919-2.749,7.535-5.338c1.273-2.022,1.947-4.361,1.947-6.767
		c0-1.104-0.896-2-2-2s-2,0.896-2,2c0,1.649-0.461,3.251-1.336,4.642c-1.078,1.727-2.911,3.003-5.163,3.594l-10.288,2.7
		c-7.543,1.974-15.237,3.313-22.989,4.024c4.737-2.224,9.13-5.217,13.001-8.926c2.354-2.258,4.48-4.753,6.319-7.414
		c1.783-2.572,3.803-5.486,5.261-7.906c0.029-0.049,0.069-0.089,0.094-0.14c0.252-0.503,0.519-0.98,0.801-1.43
		c3.32-5.356,9.062-8.554,15.359-8.554c0.396,0,0.786,0.03,1.177,0.054c0.238,0.1,0.499,0.156,0.774,0.156
		c0.14,0,0.277-0.015,0.409-0.042C128.409,52.374,135.12,59.947,135.12,69.09z M37,40.23c0-14.435,7.881-27.817,20.566-34.926
		c4.053-2.268,9.306-1.474,12.77,1.929c1.86,1.836,4.228,2.847,6.664,2.847c2.444,0,4.814-1.011,6.671-2.844
		c3.467-3.406,8.72-4.199,12.771-1.932c12.687,7.108,20.567,20.491,20.567,34.926v6.811c-7.672,0.017-14.663,3.918-18.703,10.434
		c-0.306,0.487-0.599,1.012-0.878,1.556c-0.013,0.02-0.03,0.036-0.042,0.056c-1.394,2.312-3.379,5.176-5.132,7.705
		c-1.531,2.214-3.287,4.293-5.208,6.207h-32.95c-0.033-0.002-0.064-0.01-0.097-0.01h-9.728C40.192,72.767,37,69.395,37,65.3V40.23z
		 M17,68.38c0-9.174,7.028-16.742,16-17.639V65.3c0,2.942,1.094,5.629,2.891,7.69H35c-4.411,0-8-3.589-8-8c0-1.104-0.896-2-2-2
		s-2,0.896-2,2c0,6.617,5.383,12,12,12h9.227C44.385,76.996,44.539,77,44.7,77h37.742c-7.718,5.835-17.094,9.01-26.912,9.01H55.22
		H32.901c-0.255-0.024-0.512-0.057-0.774-0.098C23.503,84.618,17,77.081,17,68.38z M68.506,145.739
		c-0.227-0.399-0.496-1.152-0.496-2.229c0-1.081,0.269-1.837,0.496-2.238c0.226,0.402,0.494,1.159,0.494,2.238
		C69,144.585,68.731,145.339,68.506,145.739z"/>
	<path class="st101" d="M58.891,56.309L57.89,62.11c-0.13,0.751,0.179,1.51,0.795,1.958c0.616,0.447,1.433,0.507,2.107,0.151
		L66,61.479l5.208,2.74c0.293,0.154,0.613,0.23,0.932,0.23c0.415,0,0.827-0.129,1.176-0.382c0.616-0.448,0.925-1.207,0.795-1.958
		l-1.001-5.802l4.216-4.106c0.546-0.531,0.742-1.327,0.507-2.052c-0.236-0.724-0.863-1.252-1.617-1.36l-5.817-0.839l-2.604-5.276
		C67.456,41.992,66.762,41.56,66,41.56s-1.456,0.433-1.793,1.115l-2.604,5.276l-5.817,0.839c-0.754,0.108-1.381,0.637-1.617,1.36
		c-0.235,0.725-0.039,1.521,0.507,2.052L58.891,56.309z M63.215,51.76c0.652-0.094,1.217-0.503,1.508-1.095L66,48.078l1.277,2.587
		c0.291,0.592,0.855,1.001,1.508,1.095l2.841,0.41l-2.062,2.008c-0.473,0.46-0.688,1.123-0.575,1.772l0.489,2.84l-2.547-1.34
		C66.64,57.297,66.32,57.22,66,57.22s-0.64,0.077-0.932,0.23l-2.547,1.34l0.489-2.84c0.112-0.649-0.103-1.312-0.575-1.772
		l-2.062-2.008L63.215,51.76z"/>
</g>
</svg>
