<?xml version="1.0" standalone="no"?>
<!DOCTYPE svg PUBLIC "-//W3C//DTD SVG 20010904//EN"
 "http://www.w3.org/TR/2001/REC-SVG-20010904/DTD/svg10.dtd">
<svg version="1.0" xmlns="http://www.w3.org/2000/svg"
 width="394.000000pt" height="185.000000pt" viewBox="0 0 394.000000 185.000000"
 preserveAspectRatio="xMidYMid meet">

<g transform="translate(0.000000,185.000000) scale(0.100000,-0.100000)"
fill="#000000" stroke="none">
<path d="M0 925 l0 -925 1970 0 1970 0 0 925 0 925 -1970 0 -1970 0 0 -925z
m1607 563 c-3 -7 -5 -2 -5 12 0 14 2 19 5 13 2 -7 2 -19 0 -25z m-791 -3 c9
-8 12 -15 7 -16 -4 0 2 -4 15 -9 12 -5 22 -14 22 -20 0 -6 -4 -9 -9 -5 -5 3
-13 0 -17 -7 -4 -7 -4 -10 1 -6 4 4 15 2 23 -5 13 -9 14 -9 8 1 -21 35 20 1
117 -96 l108 -108 -21 -19 c-21 -19 -21 -18 -142 102 -111 111 -120 123 -107
139 10 14 6 12 -18 -4 -31 -22 -32 -22 -38 -2 -4 11 -11 18 -16 15 -17 -11 -9
8 13 32 25 27 34 28 54 8z m791 -887 c-1 -161 -2 -30 -2 292 0 322 1 453 2
293 2 -161 2 -425 0 -585z m1439 829 c38 -33 36 -83 -5 -118 -30 -25 -31 -28
-31 -108 0 -93 15 -137 55 -169 55 -43 162 -17 186 46 6 15 13 100 16 190 5
127 9 162 19 162 21 0 20 -307 -1 -356 -39 -95 -152 -128 -237 -70 -53 36 -68
78 -68 190 0 92 -2 100 -25 122 -35 32 -34 85 1 113 34 27 57 26 90 -2z
m-2328 -7 c-7 -10 -14 -17 -17 -15 -4 4 18 35 25 35 2 0 -1 -9 -8 -20z m1635
-12 c25 -30 22 -75 -8 -102 -24 -22 -25 -28 -27 -172 -3 -124 -5 -149 -18
-149 -8 0 -73 83 -145 184 l-130 185 -5 -184 c-3 -122 -9 -185 -16 -187 -8 -3
-14 60 -19 211 -7 206 -5 236 15 236 5 0 69 -83 141 -185 73 -102 137 -185
142 -185 6 0 8 43 5 110 -5 103 -7 112 -32 135 -36 34 -36 86 1 115 32 25 69
20 96 -12z m1259 6 c34 -17 58 -51 58 -81 0 -33 -14 -28 -41 12 -73 107 -230
33 -197 -93 l9 -33 28 30 c40 43 71 40 126 -10 53 -49 71 -99 56 -157 -17 -62
-83 -112 -148 -112 -58 0 -133 64 -133 114 0 23 27 20 35 -4 10 -32 63 -70 98
-70 79 0 145 91 108 149 -7 12 -14 10 -36 -8 -37 -28 -71 -27 -112 5 -89 68
-98 167 -24 242 44 43 108 49 173 16z m-1692 -193 c0 -115 -3 -216 -6 -225
-15 -39 -21 -6 -26 137 -7 190 -1 297 18 297 11 0 14 -39 14 -209z m612 198
c2 -7 12 -7 31 0 39 15 111 14 150 -2 147 -62 190 -243 86 -361 -54 -61 -103
-78 -210 -73 l-84 4 -3 67 c-3 59 -6 71 -29 90 -36 31 -36 81 0 112 24 21 27
30 27 92 0 38 3 72 7 75 10 10 21 8 25 -4z m-1787 -37 c-17 -15 -18 -15 -6 0
7 9 9 23 5 30 -6 10 -4 11 7 0 11 -10 10 -15 -6 -30z m-28 -128 c3 3 15 -1 25
-11 20 -18 25 -4 6 15 -7 7 -9 12 -5 12 4 0 52 -44 107 -97 l100 -97 -20 -21
-21 -20 -68 70 c-45 46 -66 74 -60 81 9 11 2 24 -13 24 -5 0 -6 -5 -2 -12 4
-7 3 -8 -5 -4 -6 4 -9 11 -6 16 6 9 -12 23 -34 27 -8 1 -21 10 -30 19 -15 17
-15 17 2 5 9 -8 20 -11 24 -7z m641 -300 l42 -39 -302 -302 -303 -302 -33 33
c-26 26 -30 36 -20 41 7 5 10 5 6 0 -10 -10 11 -37 23 -29 5 3 9 1 9 -3 0 -5
10 -9 23 -10 20 -2 21 -1 5 11 -10 7 -14 17 -10 21 4 4 -4 5 -16 2 -13 -3 -21
-3 -18 0 3 4 1 12 -6 20 -17 21 0 28 21 9 11 -10 24 -15 30 -11 6 3 8 0 5 -8
-3 -8 -1 -18 4 -21 5 -3 8 7 6 22 -2 20 6 37 34 64 l36 38 -32 33 c-32 33 -43
55 -20 41 7 -4 8 -3 4 5 -4 6 -12 8 -18 5 -8 -5 -51 34 -96 90 -10 13 -10 16
0 16 10 0 10 2 1 8 -9 6 -6 11 8 21 12 7 19 9 16 4 -6 -9 17 -44 30 -45 13 -1
53 -35 47 -41 -3 -3 4 -10 15 -17 13 -6 19 -16 15 -23 -4 -7 -3 -9 1 -4 5 4
23 -6 40 -23 l31 -30 49 50 49 50 -69 70 c-67 68 -68 70 -51 89 10 11 23 18
29 14 5 -3 7 -2 4 4 -3 5 20 35 52 67 l57 57 19 -21 c19 -20 18 -21 -40 -80
l-59 -60 49 -50 48 -49 119 121 118 122 -57 58 c-56 57 -56 58 -38 78 l19 21
40 -40 c23 -21 60 -56 84 -77z m-620 28 c-11 -13 -10 -15 5 -9 11 4 16 3 12
-3 -8 -13 -35 -13 -35 -1 0 6 5 13 10 16 8 5 7 12 -2 23 -12 15 -11 16 5 3 14
-11 15 -16 5 -29z m10 -48 c6 -11 12 -13 16 -6 4 6 14 8 23 5 11 -4 14 -3 9 5
-4 7 -5 12 -2 12 15 0 12 -19 -4 -33 -18 -15 -21 -15 -46 8 -15 14 -22 25 -16
25 6 0 15 -7 20 -16z m1348 -29 c10 -8 37 -15 59 -15 22 0 46 -4 54 -9 23 -15
2 -31 -39 -31 -32 0 -39 -4 -44 -25 -4 -14 -17 -32 -31 -41 -25 -16 -25 -17
-25 -180 0 -139 -2 -164 -15 -164 -13 0 -15 25 -15 164 0 163 0 164 -25 180
-14 9 -27 27 -31 41 -5 20 -13 25 -38 25 -17 0 -37 4 -45 9 -24 16 -1 31 47
31 26 0 56 7 66 15 11 8 29 15 41 15 12 0 30 -7 41 -15z m812 -11 c12 -4 22
-12 22 -19 0 -10 -17 -13 -59 -14 -33 0 -74 -6 -93 -14 -62 -26 -118 -111
-118 -181 0 -65 54 -150 115 -181 28 -14 31 -13 50 10 11 14 34 28 52 31 66
13 108 -73 61 -123 -32 -34 -72 -30 -114 12 -19 19 -41 35 -48 35 -29 0 -94
60 -120 111 -35 71 -35 137 0 207 48 96 158 151 252 126z m-368 -19 c0 -6 -45
-11 -110 -13 l-110 -3 0 -54 0 -55 36 0 c27 0 43 -7 63 -29 15 -16 40 -31 55
-33 35 -4 34 -22 -1 -26 -15 -2 -43 -17 -62 -34 -26 -23 -40 -29 -62 -24 l-29
6 0 -70 0 -69 117 -3 c82 -2 118 -7 121 -15 3 -10 -28 -13 -132 -13 l-136 0 0
218 c0 120 3 222 7 226 11 11 243 2 243 -9z m520 -80 l0 -95 26 0 c16 0 36 11
50 25 16 17 34 25 58 25 25 0 40 -7 54 -25 12 -15 30 -25 46 -25 l26 0 0 95
c0 78 3 95 15 95 13 0 15 -32 15 -225 0 -193 -2 -225 -15 -225 -12 0 -15 19
-15 110 l0 110 -25 0 c-15 0 -36 -11 -48 -24 -36 -40 -73 -42 -108 -6 -17 17
-41 30 -54 30 -24 0 -24 -2 -27 -107 -2 -74 -7 -108 -15 -111 -10 -3 -13 46
-13 222 0 194 2 226 15 226 12 0 15 -17 15 -95z m-2370 -19 c0 -2 -7 -7 -16
-10 -8 -3 -12 -2 -9 4 6 10 25 14 25 6z m0 -68 c15 -21 17 -28 6 -19 -16 13
-41 51 -33 51 2 0 14 -15 27 -32z m2 -273 c3 3 8 -1 12 -10 4 -12 2 -14 -13
-6 -10 6 -24 18 -32 28 -13 17 -13 17 7 0 11 -9 23 -15 26 -12z m47 11 c8 -10
9 -16 1 -21 -6 -4 -9 -1 -8 7 2 7 -3 12 -10 10 -8 -1 -11 2 -7 8 8 13 10 13
24 -4z"/>
<path d="M771 1474 c-11 -13 -11 -18 1 -30 13 -13 16 -13 28 0 8 11 9 16 1 16
-6 0 -11 -5 -11 -11 0 -5 -5 -7 -11 -3 -8 4 -4 11 10 18 12 7 18 15 15 19 -10
10 -17 8 -33 -9z"/>
<path d="M2971 1396 c-16 -19 -11 -46 12 -60 25 -16 52 4 52 40 0 24 -5 30
-26 32 -14 2 -31 -4 -38 -12z"/>
<path d="M2282 1399 c-18 -7 -23 -15 -20 -35 7 -56 69 -57 76 -1 4 32 -23 49
-56 36z"/>
<path d="M3500 1230 c-22 -22 -18 -45 11 -60 10 -6 20 -10 23 -10 10 0 36 32
36 45 0 15 -27 45 -41 45 -5 0 -18 -9 -29 -20z"/>
<path d="M2575 1393 c-35 -9 -45 -24 -45 -67 0 -34 6 -47 30 -68 22 -19 30
-35 30 -58 0 -23 -9 -40 -30 -60 -24 -22 -30 -37 -30 -68 0 -38 1 -40 45 -52
89 -25 180 12 224 91 19 34 23 52 19 105 -4 70 -20 98 -80 146 -26 22 -48 30
-89 33 -30 2 -63 1 -74 -2z"/>
<path d="M2484 1226 c-3 -8 -4 -25 -2 -38 2 -18 9 -23 32 -23 36 0 56 27 40
53 -14 22 -62 28 -70 8z"/>
<path d="M761 1227 c2 -1 12 -9 22 -16 15 -12 17 -12 11 3 -3 9 -13 16 -22 16
-8 0 -13 -1 -11 -3z"/>
<path d="M790 1183 c0 -5 7 -16 14 -26 12 -16 14 -15 14 8 0 15 -6 25 -14 25
-8 0 -14 -3 -14 -7z"/>
<path d="M833 1145 c0 -7 6 -11 14 -8 7 3 13 6 13 8 0 2 -6 5 -13 8 -8 3 -14
-1 -14 -8z"/>
<path d="M750 660 c6 -11 15 -20 21 -20 6 0 8 -4 4 -9 -3 -5 -1 -12 5 -16 5
-3 10 2 10 12 0 15 2 15 9 3 6 -8 7 -18 5 -22 -6 -10 10 -11 19 -1 10 10 -24
44 -36 36 -6 -4 -8 0 -4 11 4 9 3 14 -2 11 -5 -3 -12 -1 -16 5 -12 20 -26 10
-15 -10z"/>
<path d="M2026 874 c-9 -8 -16 -22 -16 -29 0 -18 27 -45 45 -45 18 0 45 27 45
45 0 18 -27 45 -45 45 -7 0 -21 -7 -29 -16z"/>
<path d="M2852 474 c-20 -36 13 -73 51 -58 22 8 31 42 17 59 -17 20 -57 19
-68 -1z"/>
<path d="M2330 705 c-15 -18 -6 -61 16 -69 18 -7 49 8 57 28 8 19 -20 56 -42
56 -10 0 -24 -7 -31 -15z"/>
<path d="M3161 706 c-16 -19 -11 -46 12 -60 25 -16 52 4 52 40 0 24 -5 30 -26
32 -14 2 -31 -4 -38 -12z"/>
</g>
</svg>
