<?xml version="1.0" standalone="no"?>
<!DOCTYPE svg PUBLIC "-//W3C//DTD SVG 20010904//EN"
 "http://www.w3.org/TR/2001/REC-SVG-20010904/DTD/svg10.dtd">
<svg version="1.0" xmlns="http://www.w3.org/2000/svg"
 width="327.000000pt" height="296.000000pt" viewBox="0 0 327.000000 296.000000"
 preserveAspectRatio="xMidYMid meet">

<g transform="translate(0.000000,296.000000) scale(0.100000,-0.100000)"
fill="#000000" stroke="none">
<path d="M0 1480 l0 -1480 1635 0 1635 0 0 1480 0 1480 -1635 0 -1635 0 0
-1480z m1815 1003 l138 -143 -23 -25 -24 -26 -136 136 -136 135 -47 -48 -47
-47 135 -135 135 -134 -27 -28 -27 -29 -136 136 -135 135 -60 -60 -59 -60 -26
25 -25 25 96 98 c53 53 125 128 160 165 l63 68 21 -23 c12 -13 84 -87 160
-165z m-180 -463 l-25 -24 -63 62 -62 62 -125 -126 -125 -126 200 -194 200
-194 47 47 48 47 -135 136 -136 136 26 24 26 24 137 -137 138 -138 48 51 49
52 -74 74 -74 74 87 87 87 87 26 -24 26 -24 -63 -63 -63 -63 51 -50 50 -50 99
102 c55 57 109 113 119 126 l20 23 -59 59 -59 60 24 24 25 24 89 -84 90 -84
-325 -325 -324 -325 -325 325 -325 325 87 87 88 88 27 -28 27 -27 -58 -59 -59
-59 21 -29 c11 -15 31 -38 44 -50 l24 -22 149 149 150 150 87 -87 88 -88 -25
-25z m1113 -946 c39 -16 82 -60 82 -85 0 -26 -25 -24 -47 5 -61 78 -231 75
-273 -4 -28 -53 10 -86 161 -138 108 -38 137 -53 174 -92 24 -25 30 -40 30
-74 0 -23 -8 -54 -17 -68 -44 -66 -189 -110 -294 -88 -62 13 -108 42 -136 88
l-20 32 24 0 c14 0 35 -12 49 -26 33 -35 65 -50 125 -59 94 -12 184 29 184 83
0 40 -25 58 -149 107 -140 54 -175 75 -201 117 -41 67 -19 140 55 184 73 43
175 50 253 18z m-2248 -264 l0 -280 -55 0 -55 0 0 280 0 280 55 0 55 0 0 -280z
m242 182 c62 -54 167 -142 233 -196 l120 -97 3 196 c2 180 4 196 20 193 16 -3
17 -27 20 -281 2 -259 1 -277 -15 -277 -10 0 -126 92 -258 204 l-240 205 -3
-205 c-2 -196 -3 -204 -22 -204 -19 0 -20 8 -20 280 l0 280 25 0 c17 0 60 -31
137 -98z m886 69 c193 -86 217 -361 41 -478 -59 -39 -136 -53 -301 -53 l-148
0 0 281 0 281 178 -4 c158 -4 183 -7 230 -27z m352 -103 c0 -154 12 -192 70
-220 45 -23 94 -22 147 1 68 31 77 55 83 210 5 134 5 136 29 139 l23 4 -4
-139 c-4 -151 -13 -180 -68 -226 -93 -79 -289 -57 -354 39 -25 37 -26 44 -26
181 l0 143 50 0 50 0 0 -132z m320 -408 c0 -19 -7 -20 -200 -20 -193 0 -200 1
-200 20 0 19 7 20 200 20 193 0 200 -1 200 -20z m-1327 -147 l-33 -4 0 -80 c0
-102 -18 -103 -22 -1 l-3 77 -35 6 c-22 4 -6 6 45 6 44 0 65 -2 48 -4z m405 0
c-46 -4 -48 -6 -48 -34 0 -26 4 -29 33 -31 l32 -1 -32 -4 c-31 -4 -33 -7 -33
-43 l0 -39 48 -4 c38 -3 35 -4 -13 -3 l-60 1 -3 69 c-4 95 -3 96 65 94 57 -2
57 -2 11 -5z m467 0 c-35 -9 -65 -44 -65 -78 0 -34 19 -58 60 -74 21 -8 22
-10 5 -10 -35 -1 -83 35 -90 69 -11 51 33 100 90 98 l20 0 -20 -5z m425 -28
l0 -35 59 0 60 0 3 33 c6 62 23 27 23 -48 0 -80 -18 -109 -23 -37 l-3 42 -60
0 -59 0 0 -45 c0 -25 -4 -45 -10 -45 -6 0 -10 35 -10 85 0 50 4 85 10 85 6 0
10 -16 10 -35z m-369 8 c13 -17 13 -17 -6 -3 -11 8 -22 16 -24 17 -2 2 0 3 6
3 6 0 17 -8 24 -17z m-1 -118 c-7 -8 -17 -15 -23 -15 -6 0 -2 7 9 15 25 19 30
19 14 0z"/>
<path d="M1330 811 l0 -241 100 0 c140 0 186 24 229 120 15 32 21 66 21 120 0
98 -30 166 -91 207 -38 25 -52 28 -151 32 l-108 3 0 -241z"/>
</g>
</svg>
